<svg width="25" height="25" viewBox="0 0 25 25" fill="none" xmlns="http://www.w3.org/2000/svg">
<path d="M21.1381 3.61459L13.6428 9.18145L15.0289 5.89708L21.1381 3.61459Z" fill="#E2761B" stroke="#E2761B" stroke-linecap="round" stroke-linejoin="round"/>
<path d="M3.83496 3.61459L11.27 9.23418L9.95172 5.89708L3.83496 3.61459Z" fill="#E4761B" stroke="#E4761B" stroke-linecap="round" stroke-linejoin="round"/>
<path d="M18.4413 16.5186L16.4451 19.5769L20.7163 20.7521L21.9441 16.5864L18.4413 16.5186Z" fill="#E4761B" stroke="#E4761B" stroke-linecap="round" stroke-linejoin="round"/>
<path d="M3.04395 16.5864L4.26428 20.7521L8.53547 19.5769L6.53924 16.5186L3.04395 16.5864Z" fill="#E4761B" stroke="#E4761B" stroke-linecap="round" stroke-linejoin="round"/>
<path d="M8.29446 11.351L7.10425 13.1514L11.3453 13.3397L11.1946 8.78224L8.29446 11.351Z" fill="#E4761B" stroke="#E4761B" stroke-linecap="round" stroke-linejoin="round"/>
<path d="M16.6786 11.3509L13.7407 8.72948L13.6428 13.3396L17.8763 13.1513L16.6786 11.3509Z" fill="#E4761B" stroke="#E4761B" stroke-linecap="round" stroke-linejoin="round"/>
<path d="M8.5354 19.577L11.0815 18.334L8.88192 16.6165L8.5354 19.577Z" fill="#E4761B" stroke="#E4761B" stroke-linecap="round" stroke-linejoin="round"/>
<path d="M13.8914 18.334L16.445 19.577L16.091 16.6165L13.8914 18.334Z" fill="#E4761B" stroke="#E4761B" stroke-linecap="round" stroke-linejoin="round"/>
<path d="M16.445 19.5771L13.8914 18.3342L14.0947 19.999L14.0721 20.6995L16.445 19.5771Z" fill="#D7C1B3" stroke="#D7C1B3" stroke-linecap="round" stroke-linejoin="round"/>
<path d="M8.5354 19.5771L10.9083 20.6995L10.8932 19.999L11.0815 18.3342L8.5354 19.5771Z" fill="#D7C1B3" stroke="#D7C1B3" stroke-linecap="round" stroke-linejoin="round"/>
<path d="M10.9461 15.5166L8.82178 14.8914L10.3208 14.2059L10.9461 15.5166Z" fill="#233447" stroke="#233447" stroke-linecap="round" stroke-linejoin="round"/>
<path d="M14.0269 15.5166L14.6521 14.2059L16.1587 14.8914L14.0269 15.5166Z" fill="#233447" stroke="#233447" stroke-linecap="round" stroke-linejoin="round"/>
<path d="M8.53554 19.5769L8.89712 16.5186L6.53931 16.5864L8.53554 19.5769Z" fill="#CD6116" stroke="#CD6116" stroke-linecap="round" stroke-linejoin="round"/>
<path d="M16.0835 16.5186L16.4451 19.5769L18.4413 16.5864L16.0835 16.5186Z" fill="#CD6116" stroke="#CD6116" stroke-linecap="round" stroke-linejoin="round"/>
<path d="M17.8763 13.1513L13.6428 13.3396L14.0345 15.5167L14.6598 14.2059L16.1664 14.8914L17.8763 13.1513Z" fill="#CD6116" stroke="#CD6116" stroke-linecap="round" stroke-linejoin="round"/>
<path d="M8.82176 14.8914L10.3284 14.2059L10.9461 15.5167L11.3453 13.3396L7.10425 13.1513L8.82176 14.8914Z" fill="#CD6116" stroke="#CD6116" stroke-linecap="round" stroke-linejoin="round"/>
<path d="M7.10425 13.1513L8.88203 16.6165L8.82176 14.8914L7.10425 13.1513Z" fill="#E4751F" stroke="#E4751F" stroke-linecap="round" stroke-linejoin="round"/>
<path d="M16.1664 14.8914L16.0911 16.6165L17.8764 13.1513L16.1664 14.8914Z" fill="#E4751F" stroke="#E4751F" stroke-linecap="round" stroke-linejoin="round"/>
<path d="M11.3453 13.3396L10.946 15.5166L11.4432 18.0853L11.5562 14.703L11.3453 13.3396Z" fill="#E4751F" stroke="#E4751F" stroke-linecap="round" stroke-linejoin="round"/>
<path d="M13.6428 13.3396L13.4395 14.6955L13.5298 18.0853L14.0346 15.5166L13.6428 13.3396Z" fill="#E4751F" stroke="#E4751F" stroke-linecap="round" stroke-linejoin="round"/>
<path d="M14.0345 15.5167L13.5298 18.0854L13.8914 18.334L16.091 16.6165L16.1663 14.8914L14.0345 15.5167Z" fill="#F6851B" stroke="#F6851B" stroke-linecap="round" stroke-linejoin="round"/>
<path d="M8.82178 14.8914L8.88204 16.6165L11.0817 18.334L11.4432 18.0854L10.9461 15.5167L8.82178 14.8914Z" fill="#F6851B" stroke="#F6851B" stroke-linecap="round" stroke-linejoin="round"/>
<path d="M14.0721 20.6994L14.0947 19.9989L13.9064 19.8331H11.0665L10.8932 19.9989L10.9083 20.6994L8.5354 19.577L9.36403 20.255L11.0439 21.4226H13.929L15.6164 20.255L16.445 19.577L14.0721 20.6994Z" fill="#C0AD9E" stroke="#C0AD9E" stroke-linecap="round" stroke-linejoin="round"/>
<path d="M13.8914 18.3341L13.5298 18.0855H11.4432L11.0816 18.3341L10.8933 19.9988L11.0666 19.8331H13.9065L14.0948 19.9988L13.8914 18.3341Z" fill="#161616" stroke="#161616" stroke-linecap="round" stroke-linejoin="round"/>
<path d="M21.4544 9.54303L22.0947 6.46958L21.1381 3.61459L13.8914 8.99312L16.6786 11.3509L20.6183 12.5035L21.4921 11.4865L21.1155 11.2153L21.7181 10.6654L21.2511 10.3039L21.8537 9.84435L21.4544 9.54303Z" fill="#763D16" stroke="#763D16" stroke-linecap="round" stroke-linejoin="round"/>
<path d="M2.88574 6.46958L3.52604 9.54303L3.11926 9.84435L3.7219 10.3039L3.26239 10.6654L3.86503 11.2153L3.48838 11.4865L4.35467 12.5035L8.29441 11.3509L11.0816 8.99312L3.8349 3.61459L2.88574 6.46958Z" fill="#763D16" stroke="#763D16" stroke-linecap="round" stroke-linejoin="round"/>
<path d="M20.6184 12.5036L16.6786 11.351L17.8764 13.1514L16.0911 16.6166L18.4413 16.5864H21.9442L20.6184 12.5036Z" fill="#F6851B" stroke="#F6851B" stroke-linecap="round" stroke-linejoin="round"/>
<path d="M8.29442 11.351L4.35468 12.5036L3.04395 16.5864H6.53924L8.88199 16.6166L7.10421 13.1514L8.29442 11.351Z" fill="#F6851B" stroke="#F6851B" stroke-linecap="round" stroke-linejoin="round"/>
<path d="M13.6428 13.3398L13.8914 8.99331L15.0364 5.89726H9.95166L11.0816 8.99331L11.3453 13.3398L11.4357 14.7108L11.4432 18.0856H13.5298L13.5449 14.7108L13.6428 13.3398Z" fill="#F6851B" stroke="#F6851B" stroke-linecap="round" stroke-linejoin="round"/>
</svg>
