<svg width="16" height="17" viewBox="0 0 16 17" fill="none" xmlns="http://www.w3.org/2000/svg">
<g clip-path="url(#clip0_2_442)">
<path d="M0.500244 10.5613C0.632852 10.5613 0.760029 10.614 0.853798 10.7077C0.947566 10.8015 1.00024 10.9287 1.00024 11.0613V13.5613C1.00024 13.8265 1.1056 14.0809 1.29314 14.2684C1.48067 14.4559 1.73503 14.5613 2.00024 14.5613H14.0002C14.2655 14.5613 14.5198 14.4559 14.7074 14.2684C14.8949 14.0809 15.0002 13.8265 15.0002 13.5613V11.0613C15.0002 10.9287 15.0529 10.8015 15.1467 10.7077C15.2405 10.614 15.3676 10.5613 15.5002 10.5613C15.6329 10.5613 15.76 10.614 15.8538 10.7077C15.9476 10.8015 16.0002 10.9287 16.0002 11.0613V13.5613C16.0002 14.0917 15.7895 14.6004 15.4145 14.9755C15.0394 15.3506 14.5307 15.5613 14.0002 15.5613H2.00024C1.46981 15.5613 0.961103 15.3506 0.586031 14.9755C0.210958 14.6004 0.000244141 14.0917 0.000244141 13.5613V11.0613C0.000244141 10.9287 0.0529226 10.8015 0.146691 10.7077C0.240459 10.614 0.367636 10.5613 0.500244 10.5613Z" fill="white"/>
<path d="M7.6459 1.80729C7.69234 1.76073 7.74752 1.72379 7.80827 1.69858C7.86901 1.67338 7.93413 1.6604 7.9999 1.6604C8.06567 1.6604 8.13079 1.67338 8.19153 1.69858C8.25228 1.72379 8.30745 1.76073 8.3539 1.80729L11.3539 4.80729C11.4478 4.90118 11.5005 5.02852 11.5005 5.16129C11.5005 5.29407 11.4478 5.42141 11.3539 5.51529C11.26 5.60918 11.1327 5.66193 10.9999 5.66193C10.8671 5.66193 10.7398 5.60918 10.6459 5.51529L8.4999 3.36829V12.1613C8.4999 12.2939 8.44722 12.4211 8.35345 12.5148C8.25969 12.6086 8.13251 12.6613 7.9999 12.6613C7.86729 12.6613 7.74011 12.6086 7.64635 12.5148C7.55258 12.4211 7.4999 12.2939 7.4999 12.1613V3.36829L5.3539 5.51529C5.30741 5.56178 5.25222 5.59866 5.19148 5.62382C5.13074 5.64898 5.06564 5.66193 4.9999 5.66193C4.93416 5.66193 4.86906 5.64898 4.80832 5.62382C4.74758 5.59866 4.69239 5.56178 4.6459 5.51529C4.59941 5.46881 4.56254 5.41362 4.53738 5.35288C4.51222 5.29214 4.49927 5.22704 4.49927 5.16129C4.49927 5.09555 4.51222 5.03045 4.53738 4.96971C4.56254 4.90897 4.59941 4.85378 4.6459 4.80729L7.6459 1.80729Z" fill="white"/>
</g>
<defs>
<clipPath id="clip0_2_442">
<rect width="16" height="16" fill="white" transform="translate(0.000244141 0.661316)"/>
</clipPath>
</defs>
</svg>
